<svg width="512" height="512" viewBox="0 0 512 512" fill="none" xmlns="http://www.w3.org/2000/svg">
  <rect width="512" height="512" rx="108" fill="#F5EFE3"/>
  <g transform="translate(-4, -22) scale(13)">
    <path d="M20 36V18" stroke="#B5553A" stroke-width="2.2" stroke-linecap="round"/>
    <path d="M20 22C14 22 10 18 10 14C15 14 20 16 20 22Z" fill="#B5553A"/>
    <path d="M20 22C26 22 30 18 30 14C25 14 20 16 20 22Z" fill="#B5553A" opacity="0.85"/>
    <path d="M20 18C15 18 12 14 12 10C16 10 20 12 20 18Z" fill="#B5553A" opacity="0.7"/>
    <path d="M20 18C25 18 28 14 28 10C24 10 20 12 20 18Z" fill="#B5553A" opacity="0.7"/>
    <circle cx="20" cy="8" r="2.5" fill="#B5553A"/>
  </g>
</svg>
